<?xml version="1.0" encoding="iso-8859-1"?>
<!-- Generator: Adobe Illustrator 16.0.4, SVG Export Plug-In . SVG Version: 6.00 Build 0)  -->
<!DOCTYPE svg PUBLIC "-//W3C//DTD SVG 1.1//EN" "http://www.w3.org/Graphics/SVG/1.1/DTD/svg11.dtd">
<svg version="1.1" id="Capa_1" xmlns="http://www.w3.org/2000/svg" xmlns:xlink="http://www.w3.org/1999/xlink" x="0px" y="0px"
	 width="41.665px" height="44.88px" viewBox="0 0 41.665 44.88" style="enable-background:new 0 0 41.665 44.88;"
	 xml:space="preserve">
<g>
	<g>
		<path style="fill-rule:evenodd;clip-rule:evenodd;fill:#262626;" d="M22.825,3.313V2.386h1.295V0h-6.438v2.386h1.156v0.927
			C13.926,3.779,9.514,5.95,6.195,9.229L5.671,8.706l0.771-0.769L5.555,7.051L2.771,9.835l0.887,0.886l0.811-0.813l0.574,0.572
			C1.907,14.125,0,18.859,0,24.045C0,35.552,9.324,44.88,20.832,44.88c11.506,0,20.833-9.328,20.833-20.834
			C41.665,13.213,33.395,4.317,22.825,3.313z M21.717,41.422v-3.106c0-0.488-0.397-0.885-0.885-0.885
			c-0.488,0-0.883,0.396-0.883,0.885v3.106c-8.914-0.448-16.044-7.578-16.492-16.492h2.965c0.488,0,0.884-0.396,0.884-0.885
			c0-0.487-0.396-0.883-0.884-0.883H3.457c0.448-8.916,7.582-16.048,16.498-16.494c0,0.014-0.006,0.026-0.006,0.04v3.239
			c0,0.489,0.395,0.885,0.883,0.885c0.487,0,0.885-0.396,0.885-0.885V6.709c0-0.014-0.007-0.026-0.007-0.04
			c8.914,0.445,16.05,7.578,16.499,16.494h-2.991c-0.488,0-0.887,0.396-0.887,0.883c0,0.489,0.398,0.885,0.887,0.885h2.991
			C37.76,33.844,30.63,40.974,21.717,41.422z"/>
	</g>
	<g>
		<path style="fill-rule:evenodd;clip-rule:evenodd;fill:#262626;" d="M22.465,24.739c0.059-0.177,0.108-0.356,0.108-0.553
			c0-0.963-0.78-1.742-1.741-1.742c-0.963,0-1.742,0.779-1.742,1.742c0,0.963,0.779,1.742,1.742,1.742
			c0.094,0,0.174-0.039,0.262-0.054c0.019,0.017,0.024,0.039,0.042,0.054l7.212,6.258L30.29,32.7l-0.962-2.005L22.465,24.739z"/>
	</g>
</g>
<g>
</g>
<g>
</g>
<g>
</g>
<g>
</g>
<g>
</g>
<g>
</g>
<g>
</g>
<g>
</g>
<g>
</g>
<g>
</g>
<g>
</g>
<g>
</g>
<g>
</g>
<g>
</g>
<g>
</g>
</svg>
