<?xml version="1.0" encoding="utf-8"?>
<!-- Generator: Adobe Illustrator 16.0.4, SVG Export Plug-In . SVG Version: 6.00 Build 0)  -->
<!DOCTYPE svg PUBLIC "-//W3C//DTD SVG 1.1//EN" "http://www.w3.org/Graphics/SVG/1.1/DTD/svg11.dtd">
<svg version="1.1" id="Capa_1" xmlns="http://www.w3.org/2000/svg" xmlns:xlink="http://www.w3.org/1999/xlink" x="0px" y="0px"
	 width="44.818px" height="52.809px" viewBox="0 0 44.818 52.809" enable-background="new 0 0 44.818 52.809" xml:space="preserve">
<path fill="#262626" d="M33.95,0.395l1.022,1.004l-3.33,3.391l-1.021-1.003L33.95,0.395z M10.409-0.001l3.392,3.327L12.8,4.347
	L9.408,1.02L10.409-0.001z M22.06,11.706c2.433,0,4.406-1.98,4.406-4.41c0-2.435-1.975-4.408-4.406-4.408
	c-2.429,0-4.402,1.975-4.402,4.408C17.657,9.725,19.633,11.706,22.06,11.706z M40.467,13.197l3.33-3.389l1.021,1.004l-3.33,3.388
	L40.467,13.197z M42.541,8.567L41.166,9.97l-2.472-2.429c0.034-0.52-0.139-1.048-0.533-1.444c-0.403-0.402-0.947-0.571-1.476-0.521
	l-1.704-1.677l1.247-1.27l-1.021-1.002l-3.329,3.392l1.021,1.001l1.509-1.536l1.408,1.388c-0.101,0.065-0.195,0.143-0.283,0.229
	c-0.004,0.012-0.007,0.015-0.012,0.02l-6.961,7.012l-0.005,0.022v-0.022H15.045l-6.851-6.9l1.966-2l1.403,1.375l1.003-1.021
	l-3.388-3.33L8.173,2.276l1.402,1.377L7.533,5.735C6.846,5.418,6.009,5.537,5.442,6.1C4.868,6.678,4.756,7.532,5.088,8.225
	l-1.58,1.612L2.237,8.59L1.234,9.612l3.39,3.33l1.003-1.021l-1.537-1.51l1.499-1.526l10.618,10.908l-0.015,30.5
	c0,1.392,1.125,2.516,2.516,2.516c1.385,0,2.514-1.124,2.514-2.516l-0.004-20.384h1.125v20.405l0.018,0.02
	c0.02,1.365,1.132,2.475,2.499,2.475c1.384,0,2.5-1.124,2.5-2.501l-0.004-30.471L38.148,8.746c0.004,0,0.004-0.003,0.013-0.016
	c0.098-0.094,0.18-0.199,0.253-0.312l2.176,2.139l-1.378,1.402l1.021,1.003l3.329-3.393L42.541,8.567z M27.354,18.816v-0.156
	l0.035-0.012L27.354,18.816z M3.392,14.196l-3.392-3.326l1.001-1.021l3.392,3.326L3.392,14.196z"/>
</svg>
