<?xml version="1.0" encoding="iso-8859-1"?>
<!-- Generator: Adobe Illustrator 16.0.4, SVG Export Plug-In . SVG Version: 6.00 Build 0)  -->
<!DOCTYPE svg PUBLIC "-//W3C//DTD SVG 1.1//EN" "http://www.w3.org/Graphics/SVG/1.1/DTD/svg11.dtd">
<svg version="1.1" id="Capa_1" xmlns="http://www.w3.org/2000/svg" xmlns:xlink="http://www.w3.org/1999/xlink" x="0px" y="0px"
	 width="36.433px" height="49.141px" viewBox="0 0 36.433 49.141" style="enable-background:new 0 0 36.433 49.141;"
	 xml:space="preserve">
<g>
	<path style="fill:#262626;" d="M17.745,9.365h-1.516c-0.027,0.424-0.128,0.761-0.3,1.013c-0.172,0.25-0.41,0.458-0.707,0.62
		c-0.244,0.131-0.598,0.229-1.066,0.299c-0.469,0.067-0.913,0.104-1.321,0.104v1.329h3.03v9.759h-3.03v1.487h7.883v-1.487h-2.973
		V9.365z"/>
	<path style="fill:#262626;" d="M28.408,29.442c0.048-0.046,0.101-0.084,0.146-0.132c1.565-1.564,2.173-3.708,1.867-5.739
		c0.331-0.785,0.587-1.607,0.782-2.454c1.218-1.214,1.975-2.892,1.975-4.747c0-2.495-1.378-4.646-3.397-5.8
		c-0.116-0.21-0.248-0.408-0.376-0.612c0.004-1.718-0.652-3.436-1.96-4.746c-1.234-1.231-2.828-1.861-4.439-1.934
		C21.833,1.323,19.717,0.001,17.271,0c-2.452,0.001-4.582,1.337-5.748,3.306C9.182,2.507,6.489,3.018,4.62,4.886
		c-1.789,1.789-2.322,4.332-1.667,6.602c-0.057,0.128-0.123,0.25-0.183,0.379C1.098,13.086,0,15.044,0,17.272
		c0,1.997,0.893,3.769,2.276,4.996c0.142,0.442,0.298,0.878,0.479,1.303c-0.308,2.031,0.301,4.175,1.864,5.739
		c0.425,0.425,0.894,0.769,1.393,1.053L1.441,41.734l6.533-1.216l2.795,4.967l4.611-11.477c0.499,0.119,1.012,0.188,1.544,0.188
		c0.843,0,1.644-0.165,2.382-0.454l8.269,15.398l2.807-6.022l6.051,1.267L28.408,29.442z M16.588,29.66
		c-6.739,0-12.2-5.465-12.2-12.204s5.461-12.202,12.2-12.202c6.742,0,12.204,5.463,12.204,12.202S23.33,29.66,16.588,29.66z"/>
</g>
<g>
</g>
<g>
</g>
<g>
</g>
<g>
</g>
<g>
</g>
<g>
</g>
<g>
</g>
<g>
</g>
<g>
</g>
<g>
</g>
<g>
</g>
<g>
</g>
<g>
</g>
<g>
</g>
<g>
</g>
</svg>
