<?xml version="1.0" encoding="iso-8859-1"?>
<!-- Generator: Adobe Illustrator 16.0.4, SVG Export Plug-In . SVG Version: 6.00 Build 0)  -->
<!DOCTYPE svg PUBLIC "-//W3C//DTD SVG 1.1//EN" "http://www.w3.org/Graphics/SVG/1.1/DTD/svg11.dtd">
<svg version="1.1" id="Capa_1" xmlns="http://www.w3.org/2000/svg" xmlns:xlink="http://www.w3.org/1999/xlink" x="0px" y="0px"
	 width="46.145px" height="50.725px" viewBox="0 0 46.145 50.725" style="enable-background:new 0 0 46.145 50.725;"
	 xml:space="preserve">
<path style="fill:#262626;" d="M45.852,28.826c-0.2-0.55-0.504-1.038-0.881-1.478c-0.66-2.668-1.967-5.725-3.867-8.757
	C38.06,13.731,30.002,5.896,26.942,4.687c-0.154-0.061-0.29-0.095-0.418-0.123c-0.104-0.758-0.532-1.459-1.544-1.938
	c-3.561-1.676-7.044-3.32-9.464-2.322c-2.422,0.999-3.775,2.546-1.162,8.42c2.485,1.812,7.402-1.843,8.976,0.497
	c1.572,2.339,3.305,10.127,6.188,15.104c-0.728-0.099-1.479-0.152-2.252-0.152c-3.324,0-6.313,0.974-8.424,2.531
	c-1.806-2.818-4.959-4.691-8.556-4.691c-4.764,0-8.746,3.282-9.85,7.703L0,29.722l0.253,21.003l5.193-0.086l1.883-3.341
	c3.275-1.257,7.146-4.499,9.836-7.955c3.646,0.534,8.249,0.839,10.101,0.839c2.007,0,9.593-0.884,11.76-1.677
	C44.076,36.655,47.135,32.321,45.852,28.826z"/>
<g>
</g>
<g>
</g>
<g>
</g>
<g>
</g>
<g>
</g>
<g>
</g>
<g>
</g>
<g>
</g>
<g>
</g>
<g>
</g>
<g>
</g>
<g>
</g>
<g>
</g>
<g>
</g>
<g>
</g>
</svg>
