<?xml version="1.0" encoding="iso-8859-1"?>
<!-- Generator: Adobe Illustrator 16.0.4, SVG Export Plug-In . SVG Version: 6.00 Build 0)  -->
<!DOCTYPE svg PUBLIC "-//W3C//DTD SVG 1.1//EN" "http://www.w3.org/Graphics/SVG/1.1/DTD/svg11.dtd">
<svg version="1.1" id="Capa_1" xmlns="http://www.w3.org/2000/svg" xmlns:xlink="http://www.w3.org/1999/xlink" x="0px" y="0px"
	 width="45.708px" height="42.158px" viewBox="0 0 45.708 42.158" style="enable-background:new 0 0 45.708 42.158;"
	 xml:space="preserve">
<path style="fill:#262626;" d="M29.448,17.732c0.065,0.001,0.133,0.006,0.198,0.006c12.605,0,16.061-16.954,16.061-16.954h-9.145
	C36.577,0.519,36.594,0.249,36.594,0H9.113c0,0.249,0.016,0.519,0.032,0.785H0c0,0,3.454,16.954,16.059,16.954
	c0.064,0,0.132-0.005,0.197-0.006c0.721,0.796,1.478,1.505,2.271,2.065c-0.557,0.012-1.008,0.459-1.008,1.015
	c0,0.566,0.458,1.023,1.023,1.023h1.348l-3.083,16.188h-0.932v4.135h14.674v-4.135h-0.936L26.53,21.835h1.352
	c0.562,0,1.021-0.458,1.021-1.023c0-0.562-0.459-1.021-1.021-1.021h-0.696C27.976,19.229,28.729,18.525,29.448,17.732z M2.391,2.608
	h6.952c0.639,4.092,2.606,9.312,5.37,13.204C7.24,14.905,3.685,6.642,2.391,2.608z M43.316,2.608
	c-1.295,4.035-4.852,12.299-12.323,13.204c2.762-3.892,4.731-9.112,5.372-13.204H43.316z"/>
<g>
</g>
<g>
</g>
<g>
</g>
<g>
</g>
<g>
</g>
<g>
</g>
<g>
</g>
<g>
</g>
<g>
</g>
<g>
</g>
<g>
</g>
<g>
</g>
<g>
</g>
<g>
</g>
<g>
</g>
</svg>
