<?xml version="1.0" encoding="iso-8859-1"?>
<!-- Generator: Adobe Illustrator 16.0.4, SVG Export Plug-In . SVG Version: 6.00 Build 0)  -->
<!DOCTYPE svg PUBLIC "-//W3C//DTD SVG 1.1//EN" "http://www.w3.org/Graphics/SVG/1.1/DTD/svg11.dtd">
<svg version="1.1" id="Capa_1" xmlns="http://www.w3.org/2000/svg" xmlns:xlink="http://www.w3.org/1999/xlink" x="0px" y="0px"
	 width="37.337px" height="45.907px" viewBox="0 0 37.337 45.907" style="enable-background:new 0 0 37.337 45.907;"
	 xml:space="preserve">
<g>
	<path style="fill:#262626;" d="M29.867,5.175c0.008-0.143,0.016-2.281,0.021-3.766h1.816V0h-1.812H7.443h-1.81v1.409h1.814
		c0.004,1.485,0.013,3.623,0.021,3.766L0,3.663c0,0,2.822,15.363,13.118,15.363c0.053,0,0.107-0.006,0.161-0.006
		c0.589,0.649,1.207,1.228,1.855,1.687c-0.455,0.01-0.824,0.374-0.824,0.83c0,0.462,0.374,0.835,0.834,0.835h1.101l-2.518,10.591
		h-1.87V42.99h14.204V32.962H24.19l-2.518-10.591h1.103c0.459,0,0.833-0.373,0.833-0.835c0-0.458-0.374-0.833-0.833-0.833h-0.568
		c0.646-0.459,1.261-1.035,1.848-1.683c0.053,0,0.109,0.006,0.162,0.006c10.297,0,13.12-15.363,13.12-15.363L29.867,5.175z
		 M1.953,5.152l5.679,1.512c0.521,3.343,2.13,7.607,4.387,10.788C5.915,16.711,3.01,8.449,1.953,5.152z M14.165,17.57
		C14,17.438,10.113,14.203,9.6,2.906l1.51-0.068c0.482,10.618,3.964,13.522,4,13.551L14.165,17.57z M24.055,34.339v6.973H13.709
		v-6.973H24.055z M25.316,17.453c2.258-3.181,3.866-7.445,4.388-10.788l5.678-1.512C34.326,8.45,31.42,16.711,25.316,17.453z"/>
	<rect x="9.299" y="43.454" style="fill:#262626;" width="18.739" height="2.453"/>
</g>
<g>
</g>
<g>
</g>
<g>
</g>
<g>
</g>
<g>
</g>
<g>
</g>
<g>
</g>
<g>
</g>
<g>
</g>
<g>
</g>
<g>
</g>
<g>
</g>
<g>
</g>
<g>
</g>
<g>
</g>
</svg>
